<svg data-name="Group 73" xmlns="http://www.w3.org/2000/svg" width="45.533" height="45.533"><path data-name="Path 9" d="M37.64 3.372l4.521 4.521L8.07 41.984H3.549v-4.521L37.64 3.372m0-2.472L1.801 36.739v6.993h6.993L44.633 7.893 37.64.9z" fill="#13b8f8"/><g data-name="Group 52" fill="#13b8f8"><path data-name="Path 10" d="M15.681 23.941L2.546 10.807l8.259-8.259L23.94 15.683l1.273-1.273L10.806 0 0 10.806l14.408 14.408z"/><path data-name="Path 11" d="M31.126 20.319l-1.273 1.273 13.135 13.135-8.259 8.259-13.134-13.135-1.274 1.274 14.408 14.408 10.806-10.806z"/></g><g data-name="Group 53"><path data-name="Rectangle 35" fill="#13b8f8" d="M31.63 8.5l1.273-1.273 5.404 5.403-1.274 1.273z"/></g><g data-name="Group 54"><path data-name="Line 4" fill="#fff" d="M10.489 9.005l4.052-4.052"/><path data-name="Rectangle 36" fill="#13b8f8" d="M9.853 8.368l4.052-4.052 1.274 1.273-4.053 4.052z"/></g><g data-name="Group 55"><path data-name="Line 5" fill="#fff" d="M13.979 12.36l4.052-4.052"/><path data-name="Rectangle 37" fill="#13b8f8" d="M13.343 11.723l4.052-4.052 1.274 1.273-4.053 4.052z"/></g><g data-name="Group 56"><path data-name="Line 6" fill="#fff" d="M17.469 15.85l4.052-4.052"/><path data-name="Rectangle 38" fill="#13b8f8" d="M16.833 15.213l4.052-4.052 1.274 1.273-4.053 4.052z"/></g><g data-name="Group 57"><path data-name="Line 7" fill="#fff" d="M29.683 28.065l4.052-4.052"/><path data-name="Rectangle 39" fill="#13b8f8" d="M29.047 27.428l4.052-4.052 1.274 1.273-4.053 4.052z"/></g><g data-name="Group 58"><path data-name="Line 8" fill="#fff" d="M33.173 31.554l4.052-4.052"/><path data-name="Rectangle 40" fill="#13b8f8" d="M32.537 30.917l4.052-4.052 1.274 1.273-4.053 4.052z"/></g><g data-name="Group 59"><path data-name="Line 9" fill="#fff" d="M36.528 35.044l4.052-4.052"/><path data-name="Rectangle 41" fill="#13b8f8" d="M35.892 34.407l4.052-4.052 1.274 1.273-4.053 4.052z"/></g></svg>