<svg xmlns="http://www.w3.org/2000/svg" width="53" height="53"><path data-name="Diamond@2x.png" d="M53 15.659a1.187 1.187 0 01-.281.746l.012.011-25.3 36.138-.012-.012a1.16 1.16 0 01-1.848 0l-.012.012-25.3-36.138.012-.011a1.12 1.12 0 01-.023-1.456l-.017-.012.076-.075a.8.8 0 01.09-.09L14.685.482l.017.012A1.185 1.185 0 0115.649 0h21.682a1.186 1.186 0 01.947.494l.017-.012 14.288 14.29a.809.809 0 01.09.09l.076.075-.016.012a1.184 1.184 0 01.267.71zM26.5 47.607l9.223-30.744H17.277zm-3.3-2.62l-8.438-28.124H3.515zM16.139 2.409L4.1 14.455h10.828l6.023-12.046zm1.46 12.046h17.8L29.378 2.409h-5.755zM36.857 2.409h-4.8l6.023 12.046H48.9zm1.377 14.455L29.8 44.987l19.687-28.124z" fill="#5a54f2" fill-rule="evenodd"/></svg>