<svg xmlns="http://www.w3.org/2000/svg" width="44" height="44"><path data-name="User Female@2x.png" d="M22 44a22 22 0 1122-22 22 22 0 01-22 22zm12.325-6.271a16.805 16.805 0 00-6.452-4.691c-2.6-1.161-2.571-3.086-2.194-3.94a.979.979 0 011-.594 11.345 11.345 0 004.892-.766c-.829-1.326-1.666-3.982-1.666-9.3 0-9.356-4.209-10.437-7.375-10.437-4.545 0-8.625.76-8.625 9.937 0 5.728-.693 8.6-1.5 10a6.775 6.775 0 004.394.735 1.018 1.018 0 01.975.222 2.39 2.39 0 01.739 2.136c-.2.929-1.038 1.639-2.483 2.111a14.92 14.92 0 00-6.47 4.505 19.932 19.932 0 0024.766.085zM22 2A19.989 19.989 0 008.063 36.329a16.808 16.808 0 017.345-5.092 3.067 3.067 0 001.021-.5 10.81 10.81 0 01-6.212-1.688 1 1 0 01.218-1.825c.2-.18 1.471-1.653 1.471-9.29 0-10.519 5.371-11.938 10.625-11.938 6.221 0 9.375 4.185 9.375 12.438 0 7.288 1.625 8.6 1.767 8.705a1 1 0 01.1 1.788 13.919 13.919 0 01-6.078 1.6 2.713 2.713 0 00.99.678 18.664 18.664 0 017.148 5.206A19.985 19.985 0 0022 2z" fill="#e31f98" fill-rule="evenodd"/></svg>